<svg width="49" height="45" viewBox="0 0 49 45" fill="none" xmlns="http://www.w3.org/2000/svg">
<path d="M17.7202 14.3962L27.6644 4.37476C28.6588 3.37261 28.6588 1.75376 27.6644 0.75161C26.67 -0.250537 24.9871 -0.250537 24.0692 0.75161L14.125 10.8502C13.1306 11.8523 13.1306 13.5483 14.125 14.4733C15.0429 15.3984 16.7258 15.4755 17.7202 14.3962Z" fill="white"/>
<path d="M26.6686 27.1158C27.663 28.1179 29.2694 28.1179 30.2638 27.1158L40.2846 17.0173C41.279 16.0151 41.279 14.3963 40.2846 13.3942C39.2902 12.392 37.6073 12.392 36.6894 13.3942L26.7451 23.4926C25.5976 24.4948 25.6741 26.1136 26.6686 27.1158Z" fill="white"/>
<path d="M18.712 15.6295L25.5199 22.4903C25.5199 22.4132 25.5964 22.4132 25.5964 22.4132L35.5405 12.3918L35.617 12.3147L28.8091 5.4539L28.7326 5.53099L18.7885 15.5524C18.7885 15.5524 18.712 15.5524 18.712 15.6295Z" fill="white"/>
<path d="M19.1715 18.2508L1.04243 35.5185C-0.334455 36.829 -0.334456 38.9875 0.965939 40.298C2.34283 41.6856 4.48466 41.6085 5.70856 40.2209L22.8432 21.8739L19.1715 18.2508Z" fill="white"/>
<path d="M24.4511 36.2122V37.5998H23.3802C22.1563 37.5998 21.1619 38.602 21.1619 39.8354V41.8397H47.3992V39.8354C47.3992 38.602 46.4048 37.5998 45.1809 37.5998H44.11V36.2122C44.11 34.9788 43.1155 33.9767 41.8917 33.9767H26.6695C25.4456 33.9767 24.4511 34.9788 24.4511 36.2122Z" fill="white"/>
<path d="M48.1639 43.4582H20.2438C19.7848 43.4582 19.4788 43.7665 19.4788 44.2291C19.4788 44.6917 19.7848 45 20.2438 45H48.1639C48.6229 45 48.9289 44.6917 48.9289 44.2291C48.9289 43.7665 48.6229 43.4582 48.1639 43.4582Z" fill="white"/>
</svg>
