<svg width="35" height="37" viewBox="0 0 35 37" fill="none" xmlns="http://www.w3.org/2000/svg">
<path d="M33.8299 34.0013L29.6062 29.6754C31.3564 27.4035 32.4896 24.6917 32.8897 21.8182C33.2899 18.9448 32.9424 16.0132 31.8831 13.3241C32.5081 12.5523 32.9796 11.6609 33.2709 10.7008C33.5622 9.74082 33.6675 8.73096 33.5808 7.7289C33.4941 6.72685 33.2172 5.75225 32.7657 4.86072C32.3142 3.9692 31.6971 3.17823 30.9496 2.53297C30.2021 1.8877 29.3388 1.40078 28.409 1.10001C27.4793 0.799234 26.5012 0.690497 25.5308 0.780005C24.5603 0.869512 23.6164 1.15551 22.753 1.62167C21.8896 2.08784 21.1236 2.72503 20.4987 3.49688C18.2502 2.97102 15.9164 2.97102 13.668 3.49688C12.976 2.63137 12.1063 1.93555 11.1218 1.45982C10.1373 0.984083 9.06268 0.740327 7.97573 0.746197C6.56339 0.743776 5.17997 1.15938 3.98933 1.94378C2.79869 2.72818 1.85073 3.84851 1.25774 5.17206C0.664745 6.49561 0.451564 7.96692 0.643449 9.41172C0.835333 10.8565 1.42424 12.2143 2.34042 13.3241C1.27329 16.0081 0.916485 18.9368 1.30658 21.8101C1.69668 24.6833 2.81964 27.3978 4.56039 29.6754L0.336751 34.0013C0.230046 34.1105 0.145352 34.2405 0.0875545 34.3838C0.029757 34.527 0 34.6807 0 34.8359C0 34.991 0.029757 35.1447 0.0875545 35.2879C0.145352 35.4312 0.230046 35.5612 0.336751 35.6705C0.442584 35.7807 0.568498 35.8681 0.707228 35.9278C0.845959 35.9875 0.99476 36.0182 1.14505 36.0182C1.29534 36.0182 1.44414 35.9875 1.58287 35.9278C1.7216 35.8681 1.84751 35.7807 1.95335 35.6705L6.06314 31.4151C9.02145 34.3629 12.9722 36.0102 17.0833 36.0102C21.1945 36.0102 25.1452 34.3629 28.1035 31.4151L32.2133 35.6705C32.3191 35.7807 32.445 35.8681 32.5838 35.9278C32.7225 35.9875 32.8713 36.0182 33.0216 36.0182C33.1719 36.0182 33.3207 35.9875 33.4594 35.9278C33.5981 35.8681 33.724 35.7807 33.8299 35.6705C33.9366 35.5612 34.0213 35.4312 34.0791 35.2879C34.1369 35.1447 34.1666 34.991 34.1666 34.8359C34.1666 34.6807 34.1369 34.527 34.0791 34.3838C34.0213 34.2405 33.9366 34.1105 33.8299 34.0013ZM26.1909 3.09721C27.5487 3.10031 28.85 3.65863 29.8101 4.64998C30.7702 5.64133 31.3109 6.985 31.3139 8.38699C31.3191 9.28368 31.0995 10.1665 30.6764 10.9496C30.5625 10.7498 30.4259 10.5617 30.3007 10.3736C28.8873 8.19766 26.9851 6.407 24.7564 5.15434L24.6084 5.07206C24.2441 4.87614 23.8647 4.68806 23.47 4.50782L23.1854 4.37851L22.9805 4.27271C23.8903 3.51591 25.0225 3.10135 26.1909 3.09721ZM7.97573 3.09721C9.14408 3.10135 10.2763 3.51591 11.1862 4.27271L10.9812 4.36676L10.6966 4.49606C10.3096 4.67631 9.93007 4.86439 9.55818 5.0603L9.41018 5.14259C7.18696 6.39346 5.28895 8.17986 3.87732 10.3501C3.75209 10.5382 3.61548 10.7262 3.50163 10.9261C3.07834 10.151 2.8549 9.27676 2.85272 8.38699C2.85573 6.985 3.39644 5.64133 4.35654 4.64998C5.31664 3.65863 6.61795 3.10031 7.97573 3.09721ZM17.0833 33.6604C13.4601 33.6604 9.98527 32.1742 7.42327 29.5288C4.86126 26.8834 3.42194 23.2955 3.42194 19.5543C3.4217 17.3116 3.94499 15.102 4.94746 13.1125L5.18654 12.6306C5.34592 12.3602 5.5053 12.0781 5.67607 11.8077L5.88099 11.5021C6.08591 11.2082 6.29083 10.9026 6.51852 10.6322L6.62098 10.5029C7.92646 8.9139 9.55514 7.64159 11.3911 6.77654L11.9603 6.50618L12.5181 6.29458L13.3834 6.00071C15.8371 5.26405 18.4433 5.26405 20.8971 6.00071L21.7623 6.29458L22.3202 6.50618L22.8894 6.77654C24.6843 7.65616 26.273 8.92754 27.5456 10.5029L27.6481 10.6322C27.8758 10.9026 28.0807 11.2082 28.2856 11.5021L28.4906 11.8077C28.6613 12.0781 28.8207 12.3602 28.9801 12.6306L29.2192 13.1125C30.2216 15.102 30.7449 17.3116 30.7447 19.5543C30.7447 23.2955 29.3054 26.8834 26.7434 29.5288C24.1814 32.1742 20.7065 33.6604 17.0833 33.6604Z" fill="white"/>
<path d="M18.2146 18.4591V11.9824C18.2146 11.6751 18.0891 11.3804 17.8657 11.1631C17.6423 10.9458 17.3393 10.8237 17.0233 10.8237C16.7074 10.8237 16.4044 10.9458 16.181 11.1631C15.9576 11.3804 15.8321 11.6751 15.8321 11.9824V18.9342C15.8311 19.0867 15.8612 19.2378 15.9205 19.379C15.9798 19.5201 16.0671 19.6485 16.1775 19.7568L21.2285 24.7273C21.34 24.8449 21.4754 24.9388 21.6261 25.003C21.7768 25.0672 21.9396 25.1003 22.1041 25.1003C22.2686 25.1003 22.4313 25.0672 22.582 25.003C22.7327 24.9388 22.8681 24.8449 22.9797 24.7273C23.0913 24.6196 23.1799 24.4915 23.2404 24.3503C23.3009 24.2091 23.332 24.0577 23.332 23.9047C23.332 23.7518 23.3009 23.6003 23.2404 23.4591C23.1799 23.3179 23.0913 23.1898 22.9797 23.0821L18.2146 18.4591Z" fill="white"/>
</svg>
