<svg height='100px' width='100px'  fill="#000000" xmlns="http://www.w3.org/2000/svg" xmlns:xlink="http://www.w3.org/1999/xlink" version="1.1" x="0px" y="0px" viewBox="0 0 100 100" enable-background="new 0 0 100 100" xml:space="preserve"><path d="M54.242,50L78.23,26.012c1.172-1.171,1.172-3.071,0-4.242c-1.172-1.172-3.07-1.172-4.242,0L50,45.758L26.012,21.77  c-1.171-1.172-3.071-1.172-4.242,0c-1.172,1.171-1.172,3.071,0,4.242L45.758,50L21.77,73.988c-1.172,1.171-1.172,3.071,0,4.242  c0.585,0.586,1.354,0.879,2.121,0.879s1.535-0.293,2.121-0.879L50,54.242L73.988,78.23c0.586,0.586,1.354,0.879,2.121,0.879  s1.535-0.293,2.121-0.879c1.172-1.171,1.172-3.071,0-4.242L54.242,50z"></path></svg>