<svg width="49" height="45" viewBox="0 0 49 45" fill="none" xmlns="http://www.w3.org/2000/svg">
<path d="M17.7199 14.3962L27.6641 4.37476C28.6585 3.37261 28.6585 1.75376 27.6641 0.75161C26.6697 -0.250537 24.9868 -0.250537 24.0689 0.75161L14.1247 10.8502C13.1303 11.8523 13.1303 13.5483 14.1247 14.4733C15.0426 15.3984 16.7255 15.4755 17.7199 14.3962Z" fill="white"/>
<path d="M26.6673 27.1158C27.6617 28.1179 29.2681 28.1179 30.2625 27.1158L40.2833 17.0173C41.2777 16.0152 41.2777 14.3963 40.2833 13.3942C39.2889 12.392 37.606 12.392 36.6881 13.3942L26.7438 23.4927C25.5964 24.4948 25.6729 26.1137 26.6673 27.1158Z" fill="white"/>
<path d="M18.7109 15.6294L25.5188 22.4903C25.5188 22.4132 25.5953 22.4132 25.5953 22.4132L35.5395 12.3918L35.6159 12.3147L28.808 5.45386L28.7316 5.53095L18.7874 15.5524C18.7874 15.5524 18.7109 15.5524 18.7109 15.6294Z" fill="white"/>
<path d="M19.1715 18.2507L1.04243 35.5184C-0.334455 36.8289 -0.334456 38.9874 0.965939 40.2979C2.34283 41.6855 4.48466 41.6084 5.70856 40.2208L22.8432 21.8739L19.1715 18.2507Z" fill="white"/>
<path d="M24.4494 36.2121V37.5997H23.3785C22.1546 37.5997 21.1602 38.6019 21.1602 39.8353V41.8396H47.3974V39.8353C47.3974 38.6019 46.403 37.5997 45.1791 37.5997H44.1082V36.2121C44.1082 34.9787 43.1138 33.9766 41.8899 33.9766H26.6677C25.4438 33.9766 24.4494 34.9787 24.4494 36.2121Z" fill="white"/>
<path d="M48.1656 43.4583H20.2454C19.7864 43.4583 19.4805 43.7666 19.4805 44.2292C19.4805 44.6917 19.7864 45.0001 20.2454 45.0001H48.1656C48.6246 45.0001 48.9305 44.6917 48.9305 44.2292C48.9305 43.7666 48.6246 43.4583 48.1656 43.4583Z" fill="white"/>
</svg>
