<svg height='100px' width='100px'  fill="#000000" xmlns="http://www.w3.org/2000/svg" data-name="Layer 1" viewBox="0 0 100 100" x="0px" y="0px"><title>Info</title><path d="M50,0a50,50,0,1,0,50,50A50,50,0,0,0,50,0Zm.62,75.53a1.48,1.48,0,0,0,1.4,0,13.37,13.37,0,0,0,2.34-2.17c1-1.19,1.88-2.48,2.87-3.82l1.39.84c-2,3.34-4.06,6.44-7.12,8.76a11.06,11.06,0,0,1-5.58,2.33c-4.77.54-7.82-2.71-6.68-7.39,1-4.11,2.27-8.16,3.43-12.24S45,53.52,46.18,49.38a10.35,10.35,0,0,0,.21-1.24,2.45,2.45,0,0,0-2.21-3.06A21.2,21.2,0,0,0,42,45a3.53,3.53,0,0,1,.11-.71l.14-1,17.24-2.76-1.2,4.18h0l-.27,1Q54.27,58.81,50.49,72A8.32,8.32,0,0,0,50,74.14,1.86,1.86,0,0,0,50.62,75.53ZM54.76,31a6.22,6.22,0,0,1-6.18-6.28,6.21,6.21,0,1,1,12.42,0A6.29,6.29,0,0,1,54.76,31Z"></path></svg>