<svg height='100px' width='100px'  fill="#000000" xmlns="http://www.w3.org/2000/svg" xmlns:xlink="http://www.w3.org/1999/xlink" version="1.1" x="0px" y="0px" viewBox="0 0 100 100" enable-background="new 0 0 100 100" xml:space="preserve"><path d="M74.795,41.343h-0.963V26.998C73.832,13.857,63.141,3.167,50,3.167s-23.832,10.69-23.832,23.831v14.345h-0.963  c-5.072,0-9.188,4.113-9.188,9.188v37.114c0,5.075,4.115,9.188,9.188,9.188h49.59c5.072,0,9.188-4.112,9.188-9.188V50.531  C83.982,45.456,79.867,41.343,74.795,41.343z M35.168,26.998c0-8.178,6.653-14.831,14.832-14.831s14.832,6.653,14.832,14.831v14.345  H35.168V26.998z M53.834,73.267v9.649c0,2.117-1.717,3.834-3.834,3.834s-3.834-1.717-3.834-3.834v-9.649  c-3.057-1.441-5.176-4.541-5.176-8.145c0-4.977,4.033-9.011,9.01-9.011s9.01,4.034,9.01,9.011  C59.01,68.726,56.891,71.825,53.834,73.267z"></path></svg>