<svg width="80" height="81" viewBox="0 0 80 81" fill="none" xmlns="http://www.w3.org/2000/svg">
<path d="M9.99988 0C4.4599 0 0 4.4946 0 10.0777V27.7137C0 33.2967 4.4599 37.7914 9.99988 37.7914H27.4999C33.0401 37.7914 37.5 33.2967 37.5 27.7137V10.0777C37.5 4.4946 33.0401 0 27.4999 0H9.99988ZM52.5 0C46.9599 0 42.4999 4.4946 42.4999 10.0777V27.7137C42.4999 33.2967 46.9599 37.7914 52.5 37.7914H69.9999C75.5401 37.7914 79.9999 33.2967 79.9999 27.7137V10.0777C79.9999 4.4946 75.5401 0 69.9999 0H52.5ZM18.7499 42.8303C8.36237 42.8303 0 51.2576 0 61.7259C0 72.1941 8.36237 80.6218 18.7499 80.6218C29.1374 80.6218 37.5 72.1941 37.5 61.7259C37.5 51.2576 29.1374 42.8303 18.7499 42.8303ZM52.5 42.8303C46.9599 42.8303 42.4999 47.325 42.4999 52.9081V70.544C42.4999 76.1272 46.9599 80.6218 52.5 80.6218H69.9999C75.5401 80.6218 79.9999 76.1272 79.9999 70.544V52.9081C79.9999 47.325 75.5401 42.8303 69.9999 42.8303H52.5Z" fill="#EC004F"/>
</svg>
