<svg width="86" height="86" viewBox="0 0 86 86" fill="none" xmlns="http://www.w3.org/2000/svg">
<g filter="url(#filter0_f)">
<path d="M36.5 57.125C32.4208 57.125 28.4331 55.9154 25.0414 53.6491C21.6496 51.3828 19.0061 48.1616 17.445 44.3929C15.8839 40.6241 15.4755 36.4771 16.2713 32.4763C17.0671 28.4754 19.0315 24.8004 21.9159 21.9159C24.8004 19.0315 28.4754 17.0671 32.4763 16.2713C36.4771 15.4755 40.6241 15.8839 44.3929 17.445C48.1616 19.0061 51.3828 21.6496 53.6491 25.0414C55.9154 28.4331 57.125 32.4208 57.125 36.5C57.125 41.9701 54.952 47.2162 51.0841 51.0841C47.2162 54.952 41.9701 57.125 36.5 57.125ZM36.5 19.625C33.1624 19.625 29.8998 20.6147 27.1248 22.469C24.3497 24.3232 22.1868 26.9587 20.9095 30.0422C19.6323 33.1257 19.2981 36.5187 19.9493 39.7922C20.6004 43.0656 22.2076 46.0724 24.5676 48.4324C26.9276 50.7924 29.9344 52.3996 33.2079 53.0508C36.4813 53.7019 39.8743 53.3677 42.9578 52.0905C46.0413 50.8133 48.6768 48.6503 50.5311 45.8753C52.3853 43.1002 53.375 39.8376 53.375 36.5C53.375 32.0245 51.5971 27.7323 48.4324 24.5676C45.2678 21.4029 40.9755 19.625 36.5 19.625Z" fill="black" fill-opacity="0.5"/>
<path d="M67.6071 70.2498L48.4258 51.0874L51.0695 48.4436L70.2508 67.6061C70.6 67.9574 70.796 68.4326 70.796 68.928C70.796 69.4233 70.6 69.8985 70.2508 70.2498C69.8995 70.5991 69.4243 70.7951 68.9289 70.7951C68.4336 70.7951 67.9584 70.5991 67.6071 70.2498Z" fill="black" fill-opacity="0.5"/>
</g>
<path d="M36.5 57.125C32.4208 57.125 28.4331 55.9154 25.0414 53.6491C21.6496 51.3828 19.0061 48.1616 17.445 44.3929C15.8839 40.6241 15.4755 36.4771 16.2713 32.4763C17.0671 28.4754 19.0315 24.8004 21.9159 21.9159C24.8004 19.0315 28.4754 17.0671 32.4763 16.2713C36.4771 15.4755 40.6241 15.8839 44.3929 17.445C48.1616 19.0061 51.3828 21.6496 53.6491 25.0414C55.9154 28.4331 57.125 32.4208 57.125 36.5C57.125 41.9701 54.952 47.2162 51.0841 51.0841C47.2162 54.952 41.9701 57.125 36.5 57.125ZM36.5 19.625C33.1624 19.625 29.8998 20.6147 27.1248 22.469C24.3497 24.3232 22.1868 26.9587 20.9095 30.0422C19.6323 33.1257 19.2981 36.5187 19.9493 39.7922C20.6004 43.0656 22.2076 46.0724 24.5676 48.4324C26.9276 50.7924 29.9344 52.3996 33.2079 53.0508C36.4813 53.7019 39.8743 53.3677 42.9578 52.0905C46.0413 50.8133 48.6768 48.6503 50.5311 45.8753C52.3853 43.1002 53.375 39.8376 53.375 36.5C53.375 32.0245 51.5971 27.7323 48.4324 24.5676C45.2678 21.4029 40.9755 19.625 36.5 19.625Z" fill="white"/>
<path d="M67.6071 70.2498L48.4258 51.0874L51.0695 48.4436L70.2508 67.6061C70.6 67.9574 70.796 68.4326 70.796 68.928C70.796 69.4233 70.6 69.8985 70.2508 70.2498C69.8995 70.5991 69.4243 70.7951 68.9289 70.7951C68.4336 70.7951 67.9584 70.5991 67.6071 70.2498Z" fill="white"/>
<path d="M31.0808 45.8749C30.9469 46.1071 30.7648 46.3078 30.5468 46.4637C30.3288 46.6195 30.08 46.7268 29.817 46.7783C29.554 46.8298 29.2831 46.8244 29.0224 46.7624C28.7617 46.7003 28.5173 46.5831 28.3058 46.4187C26.2707 44.7354 24.8005 42.4688 24.0931 39.9243C23.3857 37.3797 23.4752 34.6795 24.3495 32.1874C24.4515 31.9278 24.6102 31.6942 24.8139 31.5037C25.0176 31.3131 25.2613 31.1704 25.5272 31.086C25.793 31.0016 26.0744 30.9775 26.3507 31.0156C26.627 31.0537 26.8914 31.153 27.1245 31.3062C27.4789 31.542 27.7425 31.8914 27.872 32.2969C28.0015 32.7024 27.9892 33.1399 27.837 33.5374C27.1764 35.2785 27.0855 37.1843 27.5775 38.9803C28.0694 40.7764 29.1189 42.3698 30.5745 43.5312C30.9194 43.8012 31.1588 44.1835 31.2513 44.6116C31.3437 45.0397 31.2834 45.4867 31.0808 45.8749Z" fill="#FF0000"/>
<defs>
<filter id="filter0_f" x="-1" y="-1" width="90" height="90" filterUnits="userSpaceOnUse" color-interpolation-filters="sRGB">
<feFlood flood-opacity="0" result="BackgroundImageFix"/>
<feBlend mode="normal" in="SourceGraphic" in2="BackgroundImageFix" result="shape"/>
<feGaussianBlur stdDeviation="7.5" result="effect1_foregroundBlur"/>
</filter>
</defs>
</svg>
