<svg height='100px' width='100px'  fill="#000000" xmlns="http://www.w3.org/2000/svg" xmlns:xlink="http://www.w3.org/1999/xlink" version="1.1" x="0px" y="0px" viewBox="0 0 90 90" enable-background="new 0 0 90 90" xml:space="preserve"><path d="M28.977,10.036v8.812c0.016,6.475-3.563,11.511-11.089,11.511H9.185l0.011,41.265c0,6.063,2.12,8.333,7.995,8.333H42.43  c-3.302-3.186-5.37-7.64-5.37-12.557V54.703c0-3.24,2.104-5.317,4.641-6.699v-1.629c0-9.084,7.475-16.557,16.558-16.557h3.667  c1.406,0,2.766,0.197,4.072,0.536V18.369c0-6.057-2.125-8.333-7.994-8.333H28.977z"></path><path d="M24.253,10.036v8.244c0,3.313-0.604,5.042-1.433,5.912c-0.833,0.869-2.364,1.469-5.536,1.469h-8.1  c0-1.412,0.854-2.057,1.729-2.959l11.031-11.349C22.664,10.525,23.528,10.046,24.253,10.036z"></path><path d="M60.091,59.817c1.87,0,3.37,1.5,3.37,3.37v4.161c0,1.865-1.5,3.365-3.37,3.365c-1.864,0-3.364-1.5-3.364-3.365v-4.161  C56.727,61.317,58.227,59.817,60.091,59.817z M58.253,41.13h3.677c2.808,0,4.964,2.155,4.964,4.963v4.692h-13.6v-4.692  C53.294,43.285,55.445,41.13,58.253,41.13z M58.253,34.203c-6.526,0-11.891,5.364-11.891,11.891v4.692h-0.516  c-2.308,0.12-4.12,1.693-4.12,3.636v12.697c0,7.114,5.724,12.838,12.833,12.838h11.068c7.109,0,12.833-5.724,12.833-12.838V54.421  c0-1.943-1.813-3.517-4.12-3.636H73.82v-4.692c0-6.527-5.364-11.891-11.891-11.891H58.253z"></path></svg>